<svg xmlns="http://www.w3.org/2000/svg" xmlns:xlink="http://www.w3.org/1999/xlink" width="64" zoomAndPan="magnify" viewBox="0 0 48 48" height="64" preserveAspectRatio="xMidYMid meet" version="1.0"><defs><clipPath id="ae94c87f1e"><path d="M 16.945312 29.09375 L 31.066406 29.09375 L 31.066406 32.765625 L 16.945312 32.765625 Z M 16.945312 29.09375 " clip-rule="nonzero"/></clipPath><clipPath id="90c28bf790"><path d="M 18.785156 29.09375 L 29.214844 29.09375 C 29.703125 29.09375 30.171875 29.289062 30.515625 29.632812 C 30.859375 29.976562 31.054688 30.445312 31.054688 30.929688 C 31.054688 31.417969 30.859375 31.886719 30.515625 32.230469 C 30.171875 32.574219 29.703125 32.765625 29.214844 32.765625 L 18.785156 32.765625 C 18.296875 32.765625 17.828125 32.574219 17.484375 32.230469 C 17.140625 31.886719 16.945312 31.417969 16.945312 30.929688 C 16.945312 30.445312 17.140625 29.976562 17.484375 29.632812 C 17.828125 29.289062 18.296875 29.09375 18.785156 29.09375 Z M 18.785156 29.09375 " clip-rule="nonzero"/></clipPath><clipPath id="9d002d5922"><path d="M 0.945312 0.09375 L 15.054688 0.09375 L 15.054688 3.765625 L 0.945312 3.765625 Z M 0.945312 0.09375 " clip-rule="nonzero"/></clipPath><clipPath id="d2d89de422"><path d="M 2.785156 0.09375 L 13.214844 0.09375 C 13.703125 0.09375 14.171875 0.289062 14.515625 0.632812 C 14.859375 0.976562 15.054688 1.445312 15.054688 1.929688 C 15.054688 2.417969 14.859375 2.886719 14.515625 3.230469 C 14.171875 3.574219 13.703125 3.765625 13.214844 3.765625 L 2.785156 3.765625 C 2.296875 3.765625 1.828125 3.574219 1.484375 3.230469 C 1.140625 2.886719 0.945312 2.417969 0.945312 1.929688 C 0.945312 1.445312 1.140625 0.976562 1.484375 0.632812 C 1.828125 0.289062 2.296875 0.09375 2.785156 0.09375 Z M 2.785156 0.09375 " clip-rule="nonzero"/></clipPath><clipPath id="a9dd43520f"><rect x="0" width="16" y="0" height="4"/></clipPath><clipPath id="0f4bb4f053"><path d="M 16.945312 20.867188 L 20.914062 20.867188 L 20.914062 24.832031 L 16.945312 24.832031 Z M 16.945312 20.867188 " clip-rule="nonzero"/></clipPath><clipPath id="4feb9ce582"><path d="M 18.929688 20.867188 C 17.835938 20.867188 16.945312 21.753906 16.945312 22.847656 C 16.945312 23.945312 17.835938 24.832031 18.929688 24.832031 C 20.027344 24.832031 20.914062 23.945312 20.914062 22.847656 C 20.914062 21.753906 20.027344 20.867188 18.929688 20.867188 Z M 18.929688 20.867188 " clip-rule="nonzero"/></clipPath><clipPath id="80c257b4a0"><path d="M 0.945312 0.867188 L 4.914062 0.867188 L 4.914062 4.832031 L 0.945312 4.832031 Z M 0.945312 0.867188 " clip-rule="nonzero"/></clipPath><clipPath id="3ec4842915"><path d="M 2.929688 0.867188 C 1.835938 0.867188 0.945312 1.753906 0.945312 2.847656 C 0.945312 3.945312 1.835938 4.832031 2.929688 4.832031 C 4.027344 4.832031 4.914062 3.945312 4.914062 2.847656 C 4.914062 1.753906 4.027344 0.867188 2.929688 0.867188 Z M 2.929688 0.867188 " clip-rule="nonzero"/></clipPath><clipPath id="3cbb7e8b88"><rect x="0" width="5" y="0" height="5"/></clipPath></defs><path fill="#083335" d="M 12.246094 10.140625 L 35.753906 10.140625 C 36.144531 10.140625 36.519531 10.214844 36.878906 10.363281 C 37.238281 10.511719 37.558594 10.722656 37.832031 11 C 38.109375 11.273438 38.320312 11.59375 38.46875 11.953125 C 38.621094 12.3125 38.695312 12.6875 38.695312 13.078125 L 38.695312 33.648438 C 38.695312 34.039062 38.621094 34.414062 38.46875 34.773438 C 38.320312 35.132812 38.109375 35.453125 37.832031 35.726562 C 37.558594 36.003906 37.238281 36.214844 36.878906 36.363281 C 36.519531 36.511719 36.144531 36.585938 35.753906 36.585938 L 12.246094 36.585938 C 11.855469 36.585938 11.480469 36.511719 11.121094 36.363281 C 10.761719 36.214844 10.441406 36.003906 10.167969 35.726562 C 9.890625 35.453125 9.679688 35.132812 9.53125 34.773438 C 9.378906 34.414062 9.304688 34.039062 9.304688 33.648438 L 9.304688 13.078125 C 9.304688 12.6875 9.378906 12.3125 9.53125 11.953125 C 9.679688 11.59375 9.890625 11.273438 10.167969 11 C 10.441406 10.722656 10.761719 10.511719 11.121094 10.363281 C 11.480469 10.214844 11.855469 10.140625 12.246094 10.140625 Z M 12.246094 10.140625 " fill-opacity="1" fill-rule="nonzero"/><path fill="#083335" d="M 21.0625 36.585938 L 26.9375 36.585938 L 24 42.464844 Z M 21.0625 36.585938 " fill-opacity="1" fill-rule="nonzero"/><path fill="#00bf63" d="M 21.0625 21.894531 C 21.0625 22.285156 20.988281 22.660156 20.835938 23.019531 C 20.6875 23.378906 20.476562 23.695312 20.199219 23.972656 C 19.925781 24.246094 19.605469 24.460938 19.246094 24.609375 C 18.886719 24.757812 18.511719 24.832031 18.121094 24.832031 C 17.734375 24.832031 17.359375 24.757812 16.996094 24.609375 C 16.636719 24.460938 16.320312 24.246094 16.042969 23.972656 C 15.769531 23.695312 15.554688 23.378906 15.40625 23.019531 C 15.257812 22.660156 15.183594 22.285156 15.183594 21.894531 C 15.183594 21.503906 15.257812 21.128906 15.40625 20.769531 C 15.554688 20.410156 15.769531 20.089844 16.042969 19.816406 C 16.320312 19.539062 16.636719 19.328125 16.996094 19.179688 C 17.359375 19.03125 17.734375 18.957031 18.121094 18.957031 C 18.511719 18.957031 18.886719 19.03125 19.246094 19.179688 C 19.605469 19.328125 19.925781 19.539062 20.199219 19.816406 C 20.476562 20.089844 20.6875 20.410156 20.835938 20.769531 C 20.988281 21.128906 21.0625 21.503906 21.0625 21.894531 Z M 21.0625 21.894531 " fill-opacity="1" fill-rule="nonzero"/><path fill="#00bf63" d="M 32.816406 21.894531 C 32.816406 22.285156 32.742188 22.660156 32.59375 23.019531 C 32.445312 23.378906 32.230469 23.695312 31.957031 23.972656 C 31.679688 24.246094 31.363281 24.460938 31.003906 24.609375 C 30.640625 24.757812 30.265625 24.832031 29.878906 24.832031 C 29.488281 24.832031 29.113281 24.757812 28.753906 24.609375 C 28.394531 24.460938 28.074219 24.246094 27.800781 23.972656 C 27.523438 23.695312 27.3125 23.378906 27.164062 23.019531 C 27.011719 22.660156 26.9375 22.285156 26.9375 21.894531 C 26.9375 21.503906 27.011719 21.128906 27.164062 20.769531 C 27.3125 20.410156 27.523438 20.089844 27.800781 19.816406 C 28.074219 19.539062 28.394531 19.328125 28.753906 19.179688 C 29.113281 19.03125 29.488281 18.957031 29.878906 18.957031 C 30.265625 18.957031 30.640625 19.03125 31.003906 19.179688 C 31.363281 19.328125 31.679688 19.539062 31.957031 19.816406 C 32.230469 20.089844 32.445312 20.410156 32.59375 20.769531 C 32.742188 21.128906 32.816406 21.503906 32.816406 21.894531 Z M 32.816406 21.894531 " fill-opacity="1" fill-rule="nonzero"/><g clip-path="url(#ae94c87f1e)"><g clip-path="url(#90c28bf790)"><g transform="matrix(1, 0, 0, 1, 16, 29)"><g clip-path="url(#a9dd43520f)"><g clip-path="url(#9d002d5922)"><g clip-path="url(#d2d89de422)"><path fill="#00bf63" d="M 0.945312 0.09375 L 15.050781 0.09375 L 15.050781 3.765625 L 0.945312 3.765625 Z M 0.945312 0.09375 " fill-opacity="1" fill-rule="nonzero"/></g></g></g></g></g></g><g clip-path="url(#0f4bb4f053)"><g clip-path="url(#4feb9ce582)"><g transform="matrix(1, 0, 0, 1, 16, 20)"><g clip-path="url(#3cbb7e8b88)"><g clip-path="url(#80c257b4a0)"><g clip-path="url(#3ec4842915)"><path fill="#00bf63" d="M 0.945312 0.867188 L 4.914062 0.867188 L 4.914062 4.832031 L 0.945312 4.832031 Z M 0.945312 0.867188 " fill-opacity="1" fill-rule="nonzero"/></g></g></g></g></g></g></svg>